<!-- android-favicon.svg -->
<svg
  width="64"
  height="64"
  viewBox="0 0 64 64"
  xmlns="http://www.w3.org/2000/svg"
>
  <!-- Color principal de Android: #3DDC84 -->
  <g fill="#3DDC84" stroke="none">
    <!-- Cabeza -->
    <rect x="16" y="8" width="32" height="12" rx="6" ry="6" />
    
    <!-- Ojos (blancos) -->
    <circle cx="24" cy="14" r="2" fill="#FFFFFF" />
    <circle cx="40" cy="14" r="2" fill="#FFFFFF" />
    
    <!-- Antenas -->
    <rect x="16" y="2" width="4" height="8" rx="1" ry="1" transform="rotate(-20 16 2)" />
    <rect x="44" y="2" width="4" height="8" rx="1" ry="1" transform="rotate(20 44 2)" />
    
    <!-- Cuerpo -->
    <rect x="12" y="20" width="40" height="26" rx="4" ry="4" />
    
    <!-- Brazos -->
    <rect x="4"  y="20" width="8"  height="26" rx="4" ry="4" />
    <rect x="52" y="20" width="8"  height="26" rx="4" ry="4" />
    
    <!-- Piernas -->
    <rect x="20" y="46" width="8"  height="10" rx="3" ry="3" />
    <rect x="36" y="46" width="8"  height="10" rx="3" ry="3" />
  </g>
</svg>
